<svg width="38" height="37" viewBox="0 0 38 37" fill="none" xmlns="http://www.w3.org/2000/svg">
<g id="award" clip-path="url(#clip0_1535_39507)">
<path id="Vector" d="M12.2534 26.1892C11.6296 25.5653 11.9548 25.7412 10.4501 25.3385C9.7674 25.1554 9.16726 24.8037 8.62454 24.3823L5.36754 32.3679C5.05239 33.1411 5.64105 33.981 6.47522 33.9494L10.2577 33.8051L12.8593 36.5532C13.4336 37.159 14.4415 36.9702 14.7566 36.1971L18.4932 27.0356C17.715 27.4691 16.8514 27.7233 15.9584 27.7233C14.5585 27.7233 13.2434 27.1784 12.2534 26.1892ZM32.7617 32.3679L29.5047 24.3823C28.962 24.8044 28.3618 25.1554 27.6791 25.3385C26.1666 25.7434 26.4982 25.5668 25.8758 26.1892C24.8859 27.1784 23.57 27.7233 22.1701 27.7233C21.2771 27.7233 20.4135 27.4684 19.6353 27.0356L23.3719 36.1971C23.687 36.9702 24.6956 37.159 25.2692 36.5532L27.8715 33.8051L31.654 33.9494C32.4882 33.981 33.0768 33.1404 32.7617 32.3679ZM24.1615 24.5646C25.2585 23.4483 25.3841 23.5445 26.9462 23.1188C27.9433 22.8467 28.7229 22.0535 28.99 21.0384C29.5269 18.9996 29.3877 19.2459 30.8529 17.7541C31.5829 17.0111 31.8679 15.9279 31.6009 14.9128C31.0646 12.8754 31.0639 13.1597 31.6009 11.1202C31.8679 10.1052 31.5829 9.02188 30.8529 8.27888C29.3877 6.78713 29.5269 7.03265 28.99 4.9946C28.7229 3.97952 27.9433 3.18627 26.9462 2.91419C24.9447 2.36789 25.1859 2.51075 23.7193 1.01828C22.9892 0.275278 21.9246 -0.0154615 20.9275 0.256614C18.9268 0.8022 19.206 0.802917 17.2017 0.256614C16.2046 -0.0154615 15.14 0.274561 14.4099 1.01828C12.9447 2.51003 13.1859 2.36789 11.1838 2.91419C10.1866 3.18627 9.40703 3.97952 9.13998 4.9946C8.60372 7.03265 8.74227 6.78713 7.27709 8.27888C6.54701 9.02188 6.26129 10.1052 6.52906 11.1202C7.06531 13.1561 7.06603 12.8719 6.52906 14.9121C6.26201 15.9271 6.54701 17.0104 7.27709 17.7541C8.74227 19.2459 8.603 18.9996 9.13998 21.0384C9.40703 22.0535 10.1866 22.8467 11.1838 23.1188C12.7904 23.5567 12.9103 23.4878 13.9677 24.5646C14.9174 25.5316 16.397 25.7046 17.5384 24.9824C17.9948 24.6927 18.5243 24.5388 19.065 24.5388C19.6056 24.5388 20.1351 24.6927 20.5915 24.9824C21.7322 25.7046 23.2118 25.5316 24.1615 24.5646ZM12.2922 12.7886C12.2922 8.98168 15.3245 5.89553 19.0646 5.89553C22.8047 5.89553 25.8371 8.98168 25.8371 12.7886C25.8371 16.5955 22.8047 19.6816 19.0646 19.6816C15.3245 19.6816 12.2922 16.5955 12.2922 12.7886Z" fill="#EC3661"/>
</g>
<defs>
<clipPath id="clip0_1535_39507">
<rect width="36.7553" height="36.7553" fill="white" transform="translate(0.6875 0.15625)"/>
</clipPath>
</defs>
</svg>
