<svg width="37" height="37" viewBox="0 0 37 37" fill="none" xmlns="http://www.w3.org/2000/svg">
<g id="award" clip-path="url(#clip0_1535_39498)">
<path id="Vector" d="M11.8081 26.1892C11.1843 25.5653 11.5095 25.7412 10.0048 25.3385C9.32209 25.1554 8.72194 24.8037 8.17923 24.3823L4.92222 32.3679C4.60708 33.1411 5.19574 33.981 6.02991 33.9494L9.8124 33.8051L12.414 36.5532C12.9883 37.159 13.9962 36.9702 14.3113 36.1971L18.0479 27.0356C17.2697 27.4691 16.4061 27.7233 15.5131 27.7233C14.1132 27.7233 12.798 27.1784 11.8081 26.1892ZM32.3164 32.3679L29.0594 24.3823C28.5167 24.8044 27.9165 25.1554 27.2338 25.3385C25.7213 25.7434 26.0529 25.5668 25.4305 26.1892C24.4406 27.1784 23.1247 27.7233 21.7248 27.7233C20.8318 27.7233 19.9682 27.4684 19.19 27.0356L22.9266 36.1971C23.2417 36.9702 24.2503 37.159 24.8239 36.5532L27.4262 33.8051L31.2087 33.9494C32.0429 33.981 32.6315 33.1404 32.3164 32.3679ZM23.7162 24.5646C24.8131 23.4483 24.9388 23.5445 26.5009 23.1188C27.498 22.8467 28.2776 22.0535 28.5447 21.0384C29.0816 18.9996 28.9424 19.2459 30.4075 17.7541C31.1376 17.0111 31.4226 15.9279 31.1556 14.9128C30.6193 12.8754 30.6186 13.1597 31.1556 11.1202C31.4226 10.1052 31.1376 9.02188 30.4075 8.27888C28.9424 6.78713 29.0816 7.03265 28.5447 4.9946C28.2776 3.97952 27.498 3.18627 26.5009 2.91419C24.4994 2.36789 24.7406 2.51075 23.274 1.01828C22.5439 0.275278 21.4793 -0.0154615 20.4822 0.256614C18.4815 0.8022 18.7607 0.802917 16.7564 0.256614C15.7593 -0.0154615 14.6947 0.274561 13.9646 1.01828C12.4994 2.51003 12.7406 2.36789 10.7385 2.91419C9.74133 3.18627 8.96171 3.97952 8.69466 4.9946C8.15841 7.03265 8.29696 6.78713 6.83178 8.27888C6.10169 9.02188 5.81598 10.1052 6.08375 11.1202C6.62 13.1561 6.62072 12.8719 6.08375 14.9121C5.8167 15.9271 6.10169 17.0104 6.83178 17.7541C8.29696 19.2459 8.15769 18.9996 8.69466 21.0384C8.96171 22.0535 9.74133 22.8467 10.7385 23.1188C12.3451 23.5567 12.4649 23.4878 13.5224 24.5646C14.4721 25.5316 15.9517 25.7046 17.0931 24.9824C17.5495 24.6927 18.079 24.5388 18.6197 24.5388C19.1603 24.5388 19.6898 24.6927 20.1462 24.9824C21.2869 25.7046 22.7665 25.5316 23.7162 24.5646ZM11.8469 12.7886C11.8469 8.98168 14.8792 5.89553 18.6193 5.89553C22.3594 5.89553 25.3917 8.98168 25.3917 12.7886C25.3917 16.5955 22.3594 19.6816 18.6193 19.6816C14.8792 19.6816 11.8469 16.5955 11.8469 12.7886Z" fill="#6838EC"/>
</g>
<defs>
<clipPath id="clip0_1535_39498">
<rect width="36.7553" height="36.7553" fill="white" transform="translate(0.242188 0.15625)"/>
</clipPath>
</defs>
</svg>
