<svg width="24" height="24" viewBox="0 0 24 24" fill="none" xmlns="http://www.w3.org/2000/svg">
<g id="brand">
<path id="coolicon" d="M19.627 22L17.585 20.2L16.434 19.13L15.217 18L15.717 19.759H4.94897C3.87058 19.7551 2.9992 18.8784 3.00196 17.8V4.957C3.0003 3.87939 3.87136 3.00386 4.94897 3H17.68C18.7576 3.00386 19.6286 3.87939 19.627 4.957V22ZM15.102 13.508C14.6803 14.0735 14.0732 14.4728 13.387 14.636C13.669 14.996 14.009 15.403 14.012 15.407C15.1591 15.4313 16.2452 14.8917 16.919 13.963C16.8845 12.0377 16.4169 10.1449 15.551 8.425C14.7886 7.82677 13.8606 7.47763 12.893 7.425H12.882L12.749 7.577C13.6133 7.80915 14.4193 8.22 15.115 8.783C14.2298 8.29641 13.2584 7.98665 12.255 7.871C11.6172 7.80017 10.9732 7.80655 10.337 7.89C10.292 7.89089 10.2472 7.89557 10.203 7.904H10.175C9.42931 7.98985 8.70178 8.19232 8.01897 8.504C7.67697 8.661 7.46697 8.775 7.45797 8.779C7.44897 8.783 7.45797 8.779 7.45797 8.772C8.19585 8.19164 9.04714 7.7723 9.95697 7.541L9.85697 7.427H9.85097C8.88336 7.47976 7.9554 7.82888 7.19297 8.427C6.32387 10.1457 5.85613 12.0393 5.82497 13.965C6.4903 14.8999 7.57797 15.4415 8.72497 15.409C8.72497 15.409 9.08297 14.973 9.36197 14.62C8.69297 14.4519 8.10349 14.0558 7.69497 13.5C7.70197 13.505 7.80097 13.572 7.96097 13.66C7.97171 13.6726 7.985 13.6829 7.99997 13.69C8.01264 13.6988 8.02602 13.7065 8.03997 13.713C8.05578 13.7202 8.07085 13.7289 8.08497 13.739C8.30808 13.862 8.53966 13.9689 8.77797 14.059C9.23104 14.2384 9.69969 14.3757 10.178 14.469C10.5967 14.548 11.0218 14.5881 11.448 14.589C11.8475 14.589 12.2462 14.5521 12.639 14.479C13.112 14.3959 13.574 14.259 14.016 14.071C14.3977 13.9242 14.762 13.7353 15.102 13.508ZM13.064 13.081C12.6289 13.1189 12.2152 12.8859 12.0221 12.4942C11.829 12.1025 11.8962 11.6324 12.1913 11.3104C12.4864 10.9885 12.9488 10.8807 13.3559 11.039C13.7629 11.1973 14.031 11.5893 14.031 12.026C14.053 12.5839 13.6207 13.0551 13.063 13.081H13.064ZM9.59597 13.081C9.04881 13.0333 8.62892 12.5752 8.62892 12.026C8.62892 11.4768 9.04881 11.0187 9.59597 10.971C9.84801 10.9718 10.089 11.0746 10.264 11.256C10.4625 11.4621 10.5705 11.7389 10.564 12.025C10.5871 12.5839 10.1538 13.0561 9.59497 13.081H9.59597Z" fill="#757575"/>
</g>
</svg>
