<svg width="24" height="24" viewBox="0 0 24 24" fill="none" xmlns="http://www.w3.org/2000/svg">
<g id="brand">
<path id="coolicon" d="M2.00195 12.0016C2.00312 16.9209 5.58036 21.1096 10.439 21.8806V14.8916H7.90195V12.0016H10.442V9.80156C10.3284 8.7591 10.6845 7.72015 11.4136 6.96649C12.1427 6.21283 13.1693 5.82257 14.215 5.90156C14.9655 5.91368 15.7141 5.98052 16.455 6.10156V8.56056H15.191C14.7558 8.50356 14.3183 8.64728 14.0017 8.95122C13.6851 9.25517 13.5237 9.68644 13.563 10.1236V12.0016H16.334L15.891 14.8926H13.563V21.8806C18.8174 21.0502 22.5021 16.2513 21.9475 10.9606C21.3929 5.66993 16.7932 1.73949 11.4808 2.01673C6.16832 2.29398 2.0028 6.68186 2.00195 12.0016Z" fill="#757575"/>
</g>
</svg>
