<svg width="45" height="45" viewBox="0 0 45 45" fill="none" xmlns="http://www.w3.org/2000/svg">
<g id="CODM" opacity="0.4" clip-path="url(#clip0_1659_39539)">
<path id="Vector" d="M22.607 2.02566C22.4475 2.0217 22.29 2.06151 22.1516 2.14072L4.31969 12.3944C4.18732 12.4705 4.07742 12.5801 4.00106 12.7119C3.92471 12.8438 3.8846 12.9934 3.88477 13.1457V33.6514C3.8846 33.8036 3.92471 33.9532 4.00106 34.0851C4.07742 34.217 4.18732 34.3265 4.31969 34.4026L22.1516 44.6563C22.2839 44.7324 22.4339 44.7724 22.5866 44.7724C22.7393 44.7724 22.8893 44.7324 23.0215 44.6563L40.8535 34.4026C40.9858 34.3265 41.0957 34.217 41.1721 34.0851C41.2484 33.9532 41.2885 33.8036 41.2884 33.6514V13.1457C41.2885 12.9934 41.2484 12.8438 41.1721 12.7119C41.0957 12.5801 40.9858 12.4705 40.8535 12.3944L23.0215 2.14072C22.8952 2.06839 22.7526 2.02883 22.607 2.02566ZM22.5866 3.89197L39.5487 13.6448V33.1522L22.5866 42.9051L5.62447 33.1522V13.6448L22.5866 3.89197ZM13.4888 12.6939C13.3193 12.6873 13.1516 12.7303 13.0063 12.8174L10.3968 14.3741C10.2676 14.4511 10.1607 14.5602 10.0866 14.6907C10.0124 14.8212 9.97353 14.9686 9.97373 15.1186V32.4534C9.97374 32.6088 10.0157 32.7613 10.0952 32.8949C10.1747 33.0286 10.2888 33.1385 10.4256 33.2131L13.905 35.1116C14.0515 35.1916 14.2179 35.2279 14.3845 35.2162C14.5511 35.2045 14.7108 35.1453 14.8446 35.0456L18.324 32.4466C18.4321 32.3659 18.5199 32.2612 18.5804 32.1408C18.6409 32.0203 18.6723 31.8875 18.6722 31.7529V27.2758L22.1041 29.4737C22.1114 29.4784 22.1187 29.4829 22.1262 29.4873L22.1398 29.4957C22.2715 29.5745 22.4219 29.6171 22.5756 29.6192C22.7293 29.6213 22.8808 29.5828 23.0147 29.5076L23.0283 29.5008C23.0433 29.4922 23.058 29.4832 23.0725 29.4737L26.5009 27.2775V31.7529C26.5008 31.8875 26.5323 32.0203 26.5927 32.1408C26.6532 32.2612 26.741 32.3659 26.8492 32.4466L30.3286 35.0456C30.4623 35.1453 30.622 35.2045 30.7886 35.2162C30.9552 35.2279 31.1217 35.1916 31.2681 35.1116L34.7475 33.2131C34.8843 33.1385 34.9984 33.0286 35.0779 32.8949C35.1574 32.7613 35.1994 32.6088 35.1994 32.4534V15.1186C35.1996 14.9686 35.1607 14.8212 35.0866 14.6907C35.0124 14.5602 34.9056 14.4511 34.7764 14.3741L32.1668 12.8174C32.0318 12.7369 31.8774 12.6944 31.72 12.6944C31.5626 12.6944 31.4082 12.7369 31.2732 12.8174L26.9409 15.4062C26.9352 15.4095 26.9296 15.4129 26.9239 15.4164C26.9228 15.4169 26.9217 15.4175 26.9205 15.4181L22.5866 18.0221L18.2849 15.4384C18.2737 15.4313 18.2624 15.4246 18.2509 15.4181C18.2503 15.4175 18.2498 15.4169 18.2492 15.4164L13.9 12.8174C13.7754 12.7427 13.6341 12.7002 13.4888 12.6939ZM13.4531 14.5704L16.9325 16.6499V25.6887V31.3198L14.2499 33.3231L11.7134 31.9407V15.6093L13.4531 14.5704ZM31.72 14.5704L33.4597 15.6093V31.9407L30.9232 33.3231L28.2406 31.3198V25.6887V16.6499L31.72 14.5704ZM18.6722 17.6922L22.1381 19.7767C22.2737 19.8582 22.429 19.9013 22.5874 19.9013C22.7458 19.9013 22.9012 19.8582 23.0368 19.7767L26.5009 17.6938V25.2166L22.5883 27.7242L18.6722 25.2166V17.6922Z" fill="white"/>
</g>
<defs>
<clipPath id="clip0_1659_39539">
<rect width="44.6055" height="44.6055" fill="white" transform="translate(0.167969 0.166504)"/>
</clipPath>
</defs>
</svg>
