<svg width="45" height="45" viewBox="0 0 45 45" fill="none" xmlns="http://www.w3.org/2000/svg">
<g id="CSGO">
<path id="Vector" d="M38.6515 10.6112C38.2205 10.6104 37.6157 10.5652 37.1889 10.6317C36.5534 10.7441 35.906 10.5584 35.2654 10.5388C35.2561 10.3821 35.3753 10.1018 35.3693 9.94592C35.2492 9.93059 35.13 9.92207 35.0141 9.89481C34.9059 9.50552 34.9477 9.09494 34.9349 8.69542C34.8736 8.69457 34.7501 8.69201 34.6887 8.69031C34.6691 9.14519 34.6708 9.60008 34.6657 10.055C34.5081 9.92633 34.3982 9.67674 34.1691 9.69463L27.9115 9.69378C27.581 9.72956 27.3228 9.50382 27.0562 9.34452C27.0307 9.13497 26.9974 8.92712 26.9566 8.72098C26.7692 8.97908 26.7521 9.3096 26.6831 9.61371C26.1856 9.71252 25.6941 9.99107 25.1873 10.0354C25.143 9.74233 25.0961 9.45015 25.0638 9.15456C25.3321 9.02508 25.6336 8.9382 25.856 8.72694C26.1175 7.96199 25.8151 7.16637 25.6422 6.41845C25.1064 6.0283 24.5126 5.68331 23.895 5.43457H23.0074C22.3975 5.6339 21.7901 5.96016 21.4434 6.5343C20.9068 7.37677 20.8327 8.45861 21.17 9.39393C21.1223 9.4263 21.0269 9.49275 20.9792 9.52682C20.3982 9.06682 19.5949 9.29427 19.0387 9.68015C18.2311 10.2926 17.8001 11.2944 17.6212 12.2825C17.4364 13.1199 17.519 13.9794 17.6178 14.821C17.2839 14.9036 16.9414 14.9198 16.6016 14.9454C16.4593 14.9513 16.2796 15.0084 16.2642 15.1779C16.162 15.8441 16.2378 16.529 16.1007 17.1908C16.0121 17.6151 15.955 18.0461 15.9695 18.4805C16.3418 18.5649 16.7166 18.6458 17.0905 18.725C16.835 18.8426 16.5411 18.926 16.3588 19.1586C16.1986 20.2328 16.5803 21.2916 16.5462 22.3692C16.3588 22.5327 16.1245 22.6801 16.0632 22.9425C15.9482 23.2517 16.1313 23.566 16.0862 23.8821C16.0428 24.2262 16.1203 24.5686 16.2302 24.8906C16.3332 25.1607 16.2472 25.4503 16.2063 25.7254C16.0853 26.4376 15.9465 27.1514 15.9167 27.8746C15.8928 28.2563 16.0249 28.6498 15.9031 29.0204C15.5061 29.9301 14.8391 30.6891 14.4864 31.6219C14.3306 32.0512 14.4098 32.5419 14.1857 32.9491C13.9464 33.4074 13.6159 33.8597 13.6457 34.4091C13.6193 34.7814 13.9157 35.1153 13.7905 35.4876C13.6048 36.2465 13.4182 37.0064 13.2121 37.7611C13.0724 38.2629 13.046 38.8123 13.2019 39.3132C13.4106 39.4231 13.6457 39.4597 13.874 39.5091H14.7522C15.0359 39.4827 15.317 39.435 15.6006 39.395C15.6824 39.0014 15.5862 38.6172 15.4533 38.2509C15.288 37.3275 15.4354 36.3462 15.8962 35.5319C16.0555 35.3206 16.3452 35.2388 16.4585 34.9867C16.628 34.6263 16.7089 34.2319 16.8639 33.8656C17.082 33.3443 17.3801 32.8545 17.5164 32.3C17.5923 31.9967 17.5054 31.6858 17.5326 31.3791C17.6153 31.0392 17.7677 30.7062 18.0182 30.4608C18.3538 30.1465 18.485 29.6652 18.8521 29.3798C19.1026 29.1924 19.1145 28.8568 19.1673 28.5697C19.2167 28.1898 19.3402 27.8261 19.4774 27.4709C19.6725 26.9794 19.807 26.4401 20.1827 26.0526C20.4212 25.803 20.5405 25.4707 20.6274 25.1402C20.7764 25.429 20.8957 25.7493 21.1351 25.9759C21.4034 26.1105 21.7944 26.0381 21.9571 26.3456C22.4248 27.0577 22.4597 27.4632 22.929 28.1753C23.1531 28.6174 23.6932 28.5093 24.0927 28.5212C24.3227 28.8372 24.5791 28.9284 24.5024 29.3117C24.4879 29.7436 24.1233 30.0767 24.1744 30.5188C24.2145 31.4183 24.2809 32.3255 24.5143 33.197C24.5961 33.6033 24.8074 33.9764 24.8142 34.3989C24.8244 34.8879 24.7315 35.6886 24.6336 36.1716C24.3951 36.8181 24.2324 37.4945 24.2017 38.187C24.7656 38.5193 25.4164 38.1819 26.0059 38.3787C26.6525 38.5925 27.3305 38.6692 28.0077 38.6564C28.4243 38.6487 28.8417 38.6078 29.2514 38.544C29.254 38.308 29.3306 38.0516 29.2233 37.831C28.8826 37.428 28.3127 37.4263 27.8987 37.1478C27.5639 36.8462 27.2905 36.4782 27.0111 36.1247C26.7751 35.847 27.0911 35.4629 27.0818 35.1127C27.0852 34.5812 27.0826 34.0335 27.2786 33.5326C27.4234 33.1339 27.3748 32.7029 27.2964 32.2966C27.1908 31.7965 27.3697 31.3033 27.4157 30.8084C27.4821 30.1337 27.5298 29.4574 27.5724 28.781C27.6031 28.3951 27.4711 28.0271 27.3774 27.66C27.322 27.3141 26.9932 27.1191 26.8969 26.7911C26.333 25.2356 25.8168 23.9553 24.706 22.715C24.2792 22.29 24.0637 21.5795 24.3227 21.0079C24.5629 21.0735 24.8014 21.1459 25.045 21.2073C25.3048 20.8572 25.5587 20.4704 25.6004 20.0207C25.643 19.5573 25.6558 19.0913 25.6967 18.6279C25.7154 18.1228 25.8245 17.6023 25.6941 17.1065C25.6089 16.7675 25.2742 16.621 25.0152 16.4489C25.0774 16.2129 25.1404 15.9787 25.1958 15.741C26.0502 16.1576 26.8424 16.7615 27.799 16.9097C28.0554 16.9489 28.3297 17.0716 28.5844 16.954C28.9354 16.7854 29.2063 16.4906 29.5129 16.2538C30.0683 15.8168 29.9917 15.0195 30.185 14.3959C30.3741 14.3227 30.5667 14.2554 30.7583 14.1838C30.6323 13.631 30.4125 13.0722 30.4874 12.4955C30.7174 12.1812 31.0079 11.9929 31.2473 11.6854C31.4185 11.452 31.7149 11.3915 31.985 11.3983C32.7985 11.3941 33.6129 11.4085 34.4272 11.3992C34.4536 11.2808 34.3574 11.5176 34.3863 11.3992C35.2331 11.4477 36.0806 11.2637 36.9291 11.3694C37.4581 11.4605 38.1685 11.423 38.7001 11.3838C38.6719 11.2271 38.6583 10.7671 38.6515 10.6112ZM28.1764 13.5901C28.0154 13.3022 27.7743 13.0313 27.7266 12.6991C27.7522 12.6642 27.805 12.5969 27.8305 12.5628C28.1764 12.5262 28.5248 12.5492 28.8715 12.5662C28.6475 12.912 28.4107 13.2511 28.1764 13.5901ZM28.1261 12.4759C28.3561 12.3583 28.4302 12.1156 28.4601 11.8711C28.6449 11.8617 28.8306 11.8558 29.018 11.8515C29.0248 12.0312 29.0308 12.2093 29.0376 12.389C28.7378 12.4563 28.4302 12.4555 28.1261 12.4759Z" fill="#FFEEEE"/>
</g>
</svg>
