<svg width="25" height="25" viewBox="0 0 25 25" fill="none" xmlns="http://www.w3.org/2000/svg">
<g id="Frame">
<path id="Vector" d="M16.5933 12.4151H8.51758V4.25537H16.5933V12.4151ZM9.44037 11.5029H15.6705V5.16761H9.44037V11.5029Z" fill="white"/>
<path id="Vector_2" d="M16.1303 7.2793V9.97822H8.97738V7.2793H7.53711V12.5184C7.53711 14.1992 10.5477 16.5504 10.5477 17.7902V20.0179H14.56V17.7902C14.56 16.5579 17.5706 14.1992 17.5706 12.5184V7.2793H16.1303Z" fill="white"/>
<path id="Vector_3" d="M10.913 5.02344H9.99023V7.07976H10.913V5.02344Z" fill="white"/>
<path id="Vector_4" d="M12.3154 5.02344H11.3926V7.07976H12.3154V5.02344Z" fill="white"/>
<path id="Vector_5" d="M13.7138 5.02344H12.791V7.07976H13.7138V5.02344Z" fill="white"/>
<path id="Vector_6" d="M15.1161 5.02344H14.1934V7.07976H15.1161V5.02344Z" fill="white"/>
</g>
</svg>
