<svg width="24" height="24" viewBox="0 0 24 24" fill="none" xmlns="http://www.w3.org/2000/svg">
<g id="brand">
<path id="coolicon" d="M11.998 21.0409C9.53805 21.0409 9.24805 21.0279 8.28805 20.9859C7.53942 20.9613 6.80048 20.8091 6.10305 20.5359C4.89636 20.0663 3.94219 19.1118 3.47305 17.9049C3.21035 17.2049 3.06866 16.4654 3.05405 15.7179C2.99805 14.7599 2.99805 14.4459 2.99805 12.0049C2.99805 9.53788 3.01105 9.24988 3.05405 8.29488C3.06898 7.5484 3.21067 6.80989 3.47305 6.11088C3.94168 4.90241 4.8974 3.94706 6.10605 3.47888C6.80469 3.21509 7.54339 3.07303 8.29005 3.05888C9.24505 3.00488 9.55905 3.00488 11.998 3.00488C14.478 3.00488 14.763 3.01788 15.708 3.05888C16.4566 3.07315 17.1973 3.21519 17.898 3.47888C19.1063 3.94759 20.0619 4.90276 20.531 6.11088C20.7982 6.82008 20.9406 7.57014 20.952 8.32788C21.008 9.28588 21.008 9.59888 21.008 12.0389C21.008 14.4789 20.994 14.7989 20.952 15.7459C20.9372 16.4941 20.7951 17.2343 20.532 17.9349C20.0617 19.1426 19.1061 20.0975 17.898 20.5669C17.1983 20.8291 16.4592 20.9707 15.712 20.9859C14.757 21.0409 14.444 21.0409 11.998 21.0409ZM11.964 4.58788C9.51805 4.58788 9.26405 4.59988 8.30905 4.64288C7.73903 4.65043 7.17453 4.75562 6.64005 4.95388C5.8508 5.25589 5.22627 5.87787 4.92105 6.66588C4.72126 7.20618 4.61605 7.77686 4.61005 8.35288C4.55705 9.32188 4.55705 9.57588 4.55705 12.0049C4.55705 14.4049 4.56605 14.6959 4.61005 15.6589C4.619 16.2291 4.72414 16.7937 4.92105 17.3289C5.22672 18.1164 5.85114 18.7379 6.64005 19.0399C7.17416 19.2395 7.7389 19.3447 8.30905 19.3509C9.27705 19.4069 9.53205 19.4069 11.964 19.4069C14.417 19.4069 14.671 19.3949 15.618 19.3509C16.1884 19.3439 16.7534 19.2387 17.288 19.0399C18.0725 18.7353 18.693 18.1152 18.998 17.3309C19.1974 16.7901 19.3026 16.2192 19.309 15.6429H19.32C19.363 14.6869 19.363 14.4319 19.363 11.9889C19.363 9.54588 19.352 9.28888 19.309 8.33388C19.3001 7.76433 19.1949 7.20039 18.998 6.66588C18.6937 5.88046 18.0731 5.25918 17.288 4.95388C16.7535 4.75462 16.1885 4.6494 15.618 4.64288C14.651 4.58788 14.398 4.58788 11.964 4.58788ZM11.998 16.6239C10.128 16.6251 8.44147 15.4996 7.72491 13.7723C7.00835 12.0451 7.40295 10.0562 8.72468 8.73334C10.0464 7.41048 12.0349 7.01415 13.7628 7.72922C15.4907 8.44428 16.6176 10.1299 16.618 11.9999C16.6153 14.5509 14.5491 16.6189 11.998 16.6239ZM11.998 8.99788C10.3412 8.99788 8.99805 10.341 8.99805 11.9979C8.99805 13.6547 10.3412 14.9979 11.998 14.9979C13.6549 14.9979 14.998 13.6547 14.998 11.9979C14.9942 10.3426 13.6533 9.00173 11.998 8.99788ZM16.798 8.28489C16.2035 8.28268 15.7229 7.79947 15.724 7.20489C15.7252 6.61031 16.2075 6.12889 16.802 6.12889C17.3966 6.12889 17.8789 6.6103 17.88 7.20488C17.8803 7.49175 17.7663 7.76691 17.5633 7.96956C17.3603 8.17222 17.0849 8.28568 16.798 8.28489Z" fill="#757575"/>
</g>
</svg>
