<svg width="21" height="17" viewBox="0 0 21 17" fill="none" xmlns="http://www.w3.org/2000/svg">
<path id="users" d="M10.1973 10.2554C12.0098 10.2554 13.4473 8.81787 13.4473 7.00537C13.4473 5.22412 11.9785 3.75537 10.1973 3.75537C8.41602 3.75537 6.97852 5.22412 6.97852 7.00537C6.94727 8.81787 8.41602 10.2554 10.1973 10.2554ZM10.1973 5.25537C11.166 5.25537 11.9473 6.06787 11.9473 7.00537C11.9473 7.97412 11.166 8.75537 10.1973 8.75537C9.25977 8.75537 8.44727 7.97412 8.44727 7.00537C8.44727 6.06787 9.25977 5.25537 10.1973 5.25537ZM16.2285 5.25537C17.6035 5.25537 18.7285 4.16162 18.7285 2.75537C18.7285 1.38037 17.6035 0.255371 16.2285 0.255371C14.8223 0.255371 13.7285 1.38037 13.7285 2.75537C13.7285 4.16162 14.8223 5.25537 16.2285 5.25537ZM11.7598 11.2554H8.66602C6.19727 11.2554 4.22852 13.1304 4.22852 15.4429C4.22852 15.9116 4.60352 16.2554 5.10352 16.2554H15.3223C15.8223 16.2554 16.2285 15.9116 16.2285 15.4429C16.2285 13.1304 14.2285 11.2554 11.7598 11.2554ZM5.79102 14.7554C6.10352 13.6304 7.25977 12.7554 8.63477 12.7554H11.7598C13.1348 12.7554 14.291 13.6304 14.6348 14.7554H5.79102ZM17.4473 6.25537H15.541C15.1348 6.25537 14.7598 6.38037 14.416 6.53662C14.416 6.69287 14.4473 6.84912 14.4473 7.00537C14.4473 8.06787 14.0723 9.03662 13.416 9.75537H19.666C19.9785 9.75537 20.2285 9.50537 20.2285 9.19287C20.2285 7.56787 18.9785 6.25537 17.4473 6.25537ZM5.94727 7.00537C5.94727 6.84912 5.97852 6.69287 6.00977 6.53662C5.66602 6.34912 5.29102 6.25537 4.88477 6.25537H2.97852C1.44727 6.25537 0.228516 7.56787 0.228516 9.19287C0.228516 9.50537 0.447266 9.75537 0.759766 9.75537H7.00977C6.35352 9.03662 5.94727 8.06787 5.94727 7.00537ZM4.22852 5.25537C5.60352 5.25537 6.72852 4.16162 6.72852 2.75537C6.72852 1.38037 5.60352 0.255371 4.22852 0.255371C2.82227 0.255371 1.72852 1.38037 1.72852 2.75537C1.72852 4.16162 2.82227 5.25537 4.22852 5.25537Z" fill="white"/>
</svg>
